<svg width="35" height="35" viewBox="0 0 35 35" fill="none" xmlns="http://www.w3.org/2000/svg">
<path d="M32.3199 8.24835C31.2066 8.74082 30.0259 9.06425 28.817 9.20793C30.0912 8.44586 31.0449 7.24649 31.5004 5.83335C30.3045 6.54502 28.9935 7.04377 27.627 7.31356C26.7092 6.33148 25.4925 5.68017 24.1663 5.46087C22.8401 5.24157 21.4786 5.46656 20.2934 6.10088C19.1083 6.7352 18.1659 7.7433 17.6128 8.96846C17.0597 10.1936 16.9269 11.5672 17.2349 12.8756C14.8099 12.7541 12.4375 12.1239 10.2718 11.026C8.10612 9.92806 6.19554 8.38696 4.6641 6.50272C4.12202 7.4338 3.83716 8.49222 3.83868 9.5696C3.83868 11.6842 4.91493 13.5523 6.55118 14.6461C5.58286 14.6156 4.63586 14.3541 3.7891 13.8834V13.9592C3.78939 15.3675 4.27672 16.7324 5.16846 17.8224C6.0602 18.9124 7.30147 19.6605 8.68181 19.9398C7.78291 20.1834 6.84038 20.2193 5.92556 20.0448C6.31474 21.257 7.07328 22.3172 8.09496 23.0768C9.11665 23.8365 10.3503 24.2576 11.6233 24.2813C10.3581 25.2749 8.90957 26.0094 7.36039 26.4428C5.8112 26.8762 4.19179 27 2.59473 26.8071C5.38262 28.6 8.62799 29.5519 11.9426 29.5488C23.1616 29.5488 29.2968 20.2548 29.2968 12.1946C29.2968 11.9321 29.2895 11.6667 29.2779 11.4071C30.472 10.544 31.5027 9.47484 32.3214 8.24981L32.3199 8.24835Z" fill="white"/>
</svg>
