<svg width="35" height="35" viewBox="0 0 35 35" fill="none" xmlns="http://www.w3.org/2000/svg">
<path d="M17.5003 2.91666C21.4626 2.91666 21.957 2.93124 23.5116 3.00416C25.0647 3.07707 26.122 3.32062 27.0524 3.68228C28.0149 4.0527 28.8257 4.55436 29.6366 5.36374C30.3781 6.09276 30.9519 6.9746 31.318 7.94791C31.6782 8.87687 31.9232 9.93562 31.9962 11.4887C32.0647 13.0433 32.0837 13.5377 32.0837 17.5C32.0837 21.4623 32.0691 21.9567 31.9962 23.5112C31.9232 25.0644 31.6782 26.1217 31.318 27.0521C30.953 28.0259 30.379 28.908 29.6366 29.6362C28.9074 30.3775 28.0256 30.9513 27.0524 31.3177C26.1235 31.6779 25.0647 31.9229 23.5116 31.9958C21.957 32.0644 21.4626 32.0833 17.5003 32.0833C13.538 32.0833 13.0437 32.0687 11.4891 31.9958C9.93595 31.9229 8.87866 31.6779 7.94824 31.3177C6.97455 30.9524 6.09255 30.3785 5.36408 29.6362C4.62238 28.9073 4.04856 28.0255 3.68262 27.0521C3.32095 26.1231 3.07741 25.0644 3.00449 23.5112C2.93595 21.9567 2.91699 21.4623 2.91699 17.5C2.91699 13.5377 2.93158 13.0433 3.00449 11.4887C3.07741 9.93416 3.32095 8.87832 3.68262 7.94791C4.04755 6.974 4.6215 6.09192 5.36408 5.36374C6.09276 4.62179 6.9747 4.04793 7.94824 3.68228C8.87866 3.32062 9.93449 3.07707 11.4891 3.00416C13.0437 2.93561 13.538 2.91666 17.5003 2.91666ZM17.5003 10.2083C15.5665 10.2083 13.7118 10.9766 12.3443 12.344C10.9769 13.7115 10.2087 15.5661 10.2087 17.5C10.2087 19.4339 10.9769 21.2885 12.3443 22.656C13.7118 24.0234 15.5665 24.7917 17.5003 24.7917C19.4342 24.7917 21.2889 24.0234 22.6563 22.656C24.0238 21.2885 24.792 19.4339 24.792 17.5C24.792 15.5661 24.0238 13.7115 22.6563 12.344C21.2889 10.9766 19.4342 10.2083 17.5003 10.2083ZM26.9795 9.84374C26.9795 9.36027 26.7874 8.89661 26.4456 8.55474C26.1037 8.21288 25.64 8.02082 25.1566 8.02082C24.6731 8.02082 24.2094 8.21288 23.8676 8.55474C23.5257 8.89661 23.3337 9.36027 23.3337 9.84374C23.3337 10.3272 23.5257 10.7909 23.8676 11.1327C24.2094 11.4746 24.6731 11.6667 25.1566 11.6667C25.64 11.6667 26.1037 11.4746 26.4456 11.1327C26.7874 10.7909 26.9795 10.3272 26.9795 9.84374ZM17.5003 13.125C18.6606 13.125 19.7734 13.5859 20.5939 14.4064C21.4144 15.2269 21.8753 16.3397 21.8753 17.5C21.8753 18.6603 21.4144 19.7731 20.5939 20.5936C19.7734 21.4141 18.6606 21.875 17.5003 21.875C16.34 21.875 15.2272 21.4141 14.4067 20.5936C13.5863 19.7731 13.1253 18.6603 13.1253 17.5C13.1253 16.3397 13.5863 15.2269 14.4067 14.4064C15.2272 13.5859 16.34 13.125 17.5003 13.125Z" fill="white"/>
</svg>
