<svg width="35" height="35" viewBox="0 0 35 35" fill="none" xmlns="http://www.w3.org/2000/svg">
<path d="M31.4172 9.47626C32.0837 12.075 32.0837 17.5 32.0837 17.5C32.0837 17.5 32.0837 22.925 31.4172 25.5238C31.0468 26.9602 29.9632 28.0904 28.591 28.4725C26.0987 29.1667 17.5003 29.1667 17.5003 29.1667C17.5003 29.1667 8.90637 29.1667 6.4097 28.4725C5.03158 28.0846 3.94949 26.9558 3.58345 25.5238C2.91699 22.925 2.91699 17.5 2.91699 17.5C2.91699 17.5 2.91699 12.075 3.58345 9.47626C3.95387 8.0398 5.03741 6.90959 6.4097 6.52751C8.90637 5.83334 17.5003 5.83334 17.5003 5.83334C17.5003 5.83334 26.0987 5.83334 28.591 6.52751C29.9691 6.91543 31.0512 8.04418 31.4172 9.47626ZM14.5837 22.6042L23.3337 17.5L14.5837 12.3958V22.6042Z" fill="white"/>
</svg>
