<svg width="56" height="57" viewBox="0 0 56 57" fill="none" xmlns="http://www.w3.org/2000/svg">
<circle cx="28" cy="29" r="25.5" stroke="white" stroke-width="5"/>
<path d="M26.344 47V28.712H16.792V23.192H33.4V47H26.344ZM29.56 19.448C28.184 19.448 27.048 19.064 26.152 18.296C25.288 17.528 24.856 16.488 24.856 15.176C24.856 13.864 25.288 12.808 26.152 12.008C27.048 11.176 28.184 10.76 29.56 10.76C30.936 10.76 32.056 11.176 32.92 12.008C33.816 12.808 34.264 13.864 34.264 15.176C34.264 16.488 33.816 17.528 32.92 18.296C32.056 19.064 30.936 19.448 29.56 19.448Z" fill="white"/>
</svg>
