<svg width="334" height="50" xmlns="http://www.w3.org/2000/svg" viewBox="0 0 334 50" role="img" aria-label="The Riveter"><path d="M20.6393 37.3961H8.8357V10.4316H0V.6308h29.4749v9.8008h-8.8356v26.9645zM61.5967 37.3961H49.7931V23.4542H44.891v13.9419H33.0874V.6308H44.891v13.5628h4.9021V.6308h11.8036V37.396zM79.3334 10.4316v3.762h6.7084v9.1984h-6.7084v4.2032h13.3515v9.8009H67.5298V.6308h25.1551v9.8008H79.3334zM132.333 15.1921c0 3.0208-.519 5.6485-1.556 7.8887-1.037 2.2402-2.593 4.042-4.666 5.4054l8.52 21.1829h-14.297l-6.297-17.9669h-1.409v17.9669H98.9958V0h14.8912c6.271 0 10.914 1.253 13.928 3.762 3.01 2.5089 4.518 6.3161 4.518 11.4301zm-13.558.8033c0-1.6066-.384-2.8484-1.148-3.7252-.767-.8769-1.866-1.3153-3.297-1.3153h-1.704v10.8107h1.704c1.383 0 2.468-.5233 3.26-1.5699.79-1.0465 1.185-2.4466 1.185-4.2003zM150.555 49.6662H137V0h13.555v49.6662zM167.744 0l4.519 26.1498h.147L177.449 0h13.113l-12.224 49.6662h-12.667L154.111 0h13.633zM207.674 11.3933v7.5239h7.705V30.237h-7.705v8.0359h15.333v11.3933h-28.892V0h28.892v11.3933h-15.333zM250.582 49.6662h-13.556V11.3933h-10.15V0h33.857v11.3933h-10.151v38.2729zM278.438 11.3933v7.5239h7.706V30.237h-7.706v8.0359h15.334v11.3933H264.88V0h28.892v11.3933h-15.334zM331.702 15.1921c0 3.0208-.519 5.6485-1.556 7.8887-1.037 2.2402-2.593 4.042-4.666 5.4054L334 49.6691h-14.297l-6.297-17.9669h-1.409v17.9669h-13.632V0h14.891c6.271 0 10.914 1.253 13.928 3.762 3.013 2.5089 4.518 6.3161 4.518 11.4301zm-13.556.8033c0-1.6066-.383-2.8484-1.147-3.7252-.767-.8769-1.866-1.3153-3.298-1.3153h-1.704v10.8107h1.704c1.384 0 2.469-.5233 3.261-1.5699.79-1.0465 1.184-2.4466 1.184-4.2003zM92.4892 42.6741H2.2666V50h90.2226v-7.3259z"/></svg>