<svg xmlns="http://www.w3.org/2000/svg" viewBox="0 0 264.53 255.01"><title>Asset 8</title><g id="Layer_2" data-name="Layer 2"><g id="background"><rect width="264.53" height="255.01"/></g><g id="logo"><path d="M18.65,127.72c7.37-.4,14.76-.71,22.13-1.21,17.92-1.24,35.9-2.14,53.6-5.41,6.91-1.28,13.62-3.63,20.43-5.49,2.35-.64,3.64-2.23,4.48-4.51a125.93,125.93,0,0,0,7-30.8c1.41-13.9,2.65-27.82,3.81-41.74.54-6.38.7-12.79,1-19.19a3.45,3.45,0,0,1,.79-2.24c.08,1,.18,1.95.25,2.93,1.39,19,2.47,38,4.25,57,1.13,12,3.32,23.88,8,35.12a5.59,5.59,0,0,0,2.59,2.69,85.84,85.84,0,0,0,25.41,6.78c13.53,1.67,27.12,3,40.72,4.12,10.27.88,20.59,1.32,30.88,2,.13,0,.24.16.56.39-11.73.7-23.29,1.18-34.81,2.15-12.76,1.09-25.51,2.41-38.21,4.06a94.35,94.35,0,0,0-24.69,6.6,4.34,4.34,0,0,0-2.3,2.39c-2.08,7.15-4.38,14.28-5.81,21.58-1.63,8.31-2.69,16.76-3.51,25.19-1,10.19-1.42,20.42-2.11,30.64-.41,6-.85,12.08-1.79,18.16-.2-2.89-.39-5.78-.6-8.66-.94-13.11-1.73-26.23-2.89-39.32a256.71,256.71,0,0,0-3.23-26c-1.42-7.37-4-14.53-6.21-21.72a4.9,4.9,0,0,0-2.71-2.45c-12.51-5.19-25.75-7.16-39.09-8.43-12.83-1.23-25.71-2-38.58-2.95-6.44-.47-12.88-.89-19.33-1.33Z" style="fill:#fff"/><path d="M60.76,103.33q-18.93,0-28.84-10.53T22,62.9a45.9,45.9,0,0,1,3-17.19,36.92,36.92,0,0,1,8.28-12.77A34.77,34.77,0,0,1,45.87,25a45.25,45.25,0,0,1,15.79-2.68,51.22,51.22,0,0,1,9,.72,60.07,60.07,0,0,1,7.06,1.68,35.61,35.61,0,0,1,5,2c1.35.68,2.32,1.2,2.92,1.57l-5,14.11a42.41,42.41,0,0,0-8.35-3.24,39.58,39.58,0,0,0-10.8-1.35,23.81,23.81,0,0,0-7.9,1.35,17.74,17.74,0,0,0-6.83,4.31A21.37,21.37,0,0,0,42,51.14a32.06,32.06,0,0,0-1.79,11.42,41,41,0,0,0,1.17,10,21.27,21.27,0,0,0,3.81,8A18.26,18.26,0,0,0,52,85.92a24.58,24.58,0,0,0,10.3,2,46.65,46.65,0,0,0,6.83-.45,48.69,48.69,0,0,0,5.38-1.07A27,27,0,0,0,78.68,85c1.2-.52,2.28-1,3.25-1.45l4.82,14a41,41,0,0,1-10.42,4A60.93,60.93,0,0,1,60.76,103.33Z" style="fill:#fff"/><path d="M186.07,101.76V24.15h52.42V38.82h-35V54.05h31V68.39h-31v18.7h37.52v14.67Z" style="fill:#fff"/><path d="M84.84,152.56v14.9H61.44v62.72H44V167.46H20.56v-14.9Z" style="fill:#fff"/><path d="M207.31,152.56h17.47v77.62H207.31Z" style="fill:#fff"/></g></g></svg>