<svg enable-background="new 0 0 327.6 99.5" viewBox="0 0 327.6 99.5" xmlns="http://www.w3.org/2000/svg"><path d="m324.1 99.5h-92.4c-1.9 0-3.5-1.6-3.5-3.5v-92.5c0-1.9 1.6-3.5 3.5-3.5h92.4c1.9 0 3.5 1.6 3.5 3.5v92.4c0 2-1.6 3.6-3.5 3.6z" fill="#d3d2c1"/><path d="m95.9 99.5h-92.4c-1.9 0-3.5-1.6-3.5-3.5v-92.5c0-1.9 1.6-3.5 3.5-3.5h92.4c1.9 0 3.5 1.6 3.5 3.5v92.4c0 2-1.5 3.6-3.5 3.6z" fill="#d4cda5"/><path d="m210 99.5h-92.4c-1.9 0-3.5-1.6-3.5-3.5v-92.5c0-1.9 1.6-3.5 3.5-3.5h92.4c1.9 0 3.5 1.6 3.5 3.5v92.4c0 2-1.6 3.6-3.5 3.6z" fill="#dcdbc9"/><path d="m256.8 14.8c3.2-.6 9-.2 13.6-.3 2.8 6.8 4.4 14.9 7.5 21.4 1.4-1.3 1.6-3.4 2.1-5.1.3-.9.6-1.8.9-2.7 1.3-4.5 2.4-9.3 4.2-13.6 6 .2 9.5-.2 13.6.3-1.2 6.2-3.4 11.9-5.1 17.8-.4 1.5-.8 3-1.2 4.5-.4 1.4-1 2.8-1.5 4.2-.5 1.5-.8 3-1.2 4.5-.4 1.4-.7 2.9-1.5 4.2 1 2.4 1.6 5 2.4 7.5.4 1.3 1.1 2.3 1.5 3.6.4 1.2.5 2.7.9 3.9s1.1 2.4 1.5 3.6c.2.7.1 1.5.3 2.1.3 1 1.1 2.3 1.5 3.6.2.7.4 1.2.6 1.8.4 1.3.5 2.7.9 3.9.4 1.5 1.6 2.9 1.2 4.5-4.6.8-10.4-.1-13.3.3-1.8-2.5-2.5-5.9-3.6-9.3-.5-1.6-1.3-3.2-1.8-4.8-.3-.9-.3-1.8-.6-2.7-.2-.7-.7-2.1-1.2-2.7-.3-.3-.1-1.1-.9-1.5-1.5 0 .7 2.1-.9 2.1-2.7 5.6-3.6 12.8-6 18.7-1.7.6-3.8 0-6 0-2.6 0-5.4.9-7.5-.3.2-3.2 1.5-6.1 2.4-9 .4-1.5.8-3 1.2-4.5.4-1.4 1.1-2.6 1.5-3.9.4-1.4.7-2.9 1.2-4.5.2-.7.7-1.3.9-2.1.2-.7.1-1.6.3-2.4.4-1.3 1.1-2.9 1.5-4.2.2-.6.4-1.5.6-2.1.7-2.3.3-3.8-.6-6.6-.1-.3-.5-.5-.6-.9-.1-.5-.2-1-.3-1.2-1-3.2-2.3-7.6-3.3-10.8-.5-1.4-1.1-2.8-1.5-4.2-.5-1.5-.7-3-1.2-4.5-.2-.7-.7-1.4-.9-2.1s-.4-1.4-.6-2.1c-.6-1.6-1.5-2.9-1-4.4z"/><path d="m135.7 21.4c2.4-1.1 8.1-.3 12.7-.3h25.9c3.8 0 9.6-.7 12.4.3 2.3.8 2.5 3.2 3.6 6 .1.3.5.7.6.9.3.8.3 1.8.6 2.4.1.3.5.5.6.9.2.5.1.8.3 1.2.8 1.9 2.3 4.1 1.2 7.2-1.4.7-1.6 1.5-3.3 1.5-2.5 0-3.4-1.9-4.2-3.9-1-2.5-2.3-6.5-3.9-8.7-13.1-.1-18.7-.1-31.6 0-1.3 3-.4 8.5-.3 12.1 5.1.7 9 .5 13.6.3 1-1.4 0-3.3.6-4.8.9-2.4 3.7-3.3 6.6-1.5.5 1.4 1 3.3 1.2 5.7 0 .2-.3.3-.3.6 0 .2.3 1.2.3 2.1 0-.1-.5.2-.3.3.4.3.3 1.3.3 2.4 0 1.8-.3 3.4-.3 5.1 0 3.2 1.1 8.1-2.1 9.3-.7.3-2.5.3-3.3 0-1.7-.6-2.3-2.6-2.4-4.5 0-.4.3-2.1.3-3.3 0-1.1.1-2-.3-3-1.6-1-4.1-.6-6.6-.6-2.4 0-5.1-.2-6.9.3-1 1.4-.3 3.2-.3 4.8 0 1.7-.3 3.3-.3 5.1 0 3.3.6 6.9.3 10.8 3.9.6 7.1.5 10.6.3 0 0 .1.3.3.3 1.2-.2 3.8 0 5.4 0 5.2 0 9.8-.2 15.7 0 1.2-.6 1.3-2 1.8-3.3.8-2.1 1.6-5.1 3-7.2.2-.3.1-.4.3-.6.4-.4 1.2-1.7 2.4-1.8.9-.1 3.2.5 3.9 1.5 1.2 1.7 0 4.7-.6 6.3-.5 1.3-1 3.2-1.5 4.5-.1.3-.5.5-.6.9-.7 2.1-1.3 5.8-3.6 6.9-1.2.6-3.9.6-6.3.6-2.1 0-4.2-.3-6-.3-2 0-3.7.3-5.4.3-1.9 0-3.9-.3-6-.3-4.8.1-11.6.1-16.9 0-5.2 0-12.1 1.3-12.7-3-.2-1.7.7-3.5 1.8-4.2 1.7-1.1 3.8-.3 6.3-.6.5-5 .4-10.2.3-15.4 0-3.5-.1-7.2 0-10.5 0-1.4 0-2.7 0-3.9-.1-4.7 0-7.8-.6-11.5-1.6-1-4.2.1-6-.9-1.1-.6-2-1.7-2.1-3-.1-1.4.6-2.6 1.5-3.3-.2 0 .2-.5.3-.5z"/><path d="m32 20.6c.8 0 1.9.3 2.4.3 2.8-.2 7.3-.5 9.6 0 .7 8.8.1 18.8.3 28 1.5.5 2.6-1.6 3.6-2.7 3-3.5 6.1-7.2 9.3-10.8.6-.6 1.3-1.2 1.8-1.8.3-.4.3-.9.6-1.2.2-.2.7-.4.9-.6.5-.7.7-1.5 1.2-2.1s1.3-.9 1.8-1.5c.3-.3.3-.9.6-1.2.2-.2.7-.3.9-.6.3-.3.3-.8.6-1.2.1-.1.6-.2.6-.3.6-1.4 2.2-2.6 3.3-3.9 3.2 0 5.5-.5 9 0-1 2.4-2.8 4.2-4.5 6-.2.2-.1.3-.3.6s-.7.7-1.2 1.2c-2.1 2.4-4.3 4.8-6.3 7.2-.8 1-1.5 1.9-2.4 3-.4.5-.9 1.1-1.5 1.8-.1.1-.6.2-.6.3-.7 1.5-2.1 2.8-3.3 4.2-.5.6-1 1.2-1.5 1.8-1 1.1-2.2 2.2-3 3.6 0 1.2 1 2.2 1.8 3 .1.1.5.2.6.3s-.1.5 0 .6c.4.5 1.1 1 1.5 1.5s.7 1.2 1.2 1.8c1.8 2.2 3.8 4.3 5.7 6.6s3.9 4.4 5.7 6.6c.3.4.3.9.6 1.2 0 0 .3.6.3.6.1.1.5-.1.6 0 .5.6.7 1.2 1.2 1.8.9 1.1 2.1 2 2.7 3.3-1 1-2.9.6-4.8.6-1.7 0-3.6.1-4.8-.3-.9-1.1-1.9-2.4-3-3.6-.3-.3-.8-.7-1.2-1.2-.8-1-1.7-2.4-2.7-3.6-.4-.5-.8-.7-1.2-1.2-.4-.4-.5-1-.9-1.5s-1.1-.7-1.5-1.2c-.2-.2-.1-.7-.3-.9-.7-.9-2.1-2.2-3-3.3-1.5-1.8-2.8-3.8-4.5-5.4-1.2-.8-1.2-2.6-3-2.7-1 2.8-.7 5.8-.6 8.4.1 5.7.4 10.6 0 16.3-5.6.6-15.1.2-22.9.3-.9-3.8-.3-6.7-.3-11.5 0-2.4-.3-4.9-.3-7.2 0-1.3.3-2.6.3-3.9-.1-11-.8-22.7 0-35.3 3.2-.1 6.8-.1 10.9-.2z"/></svg>