<svg xmlns="http://www.w3.org/2000/svg" width="61.46" height="33.2" viewBox="0 0 61.46 33.2"><title>psugdlogo</title><g id="Layer_2" data-name="Layer 2"><g id="Layer_1-2" data-name="Layer 1"><path d="M24.47,23.93a.94.94,0,0,0,.43.84,2.05,2.05,0,0,0,1.15.28H41.88a3.76,3.76,0,0,0,1.75-.28.91.91,0,0,0,.48-.84,1,1,0,0,0-.46-.84,2.83,2.83,0,0,0-1.56-.32H26.53l-.45,0-.41-.07a2.58,2.58,0,0,0-.87.54A1,1,0,0,0,24.47,23.93Z" fill="#28cd7e"/><path d="M41.06,9a10.05,10.05,0,0,0-2.28-.38q-1.42-.1-3.51-.1t-3.53.12a9.16,9.16,0,0,0-2.26.43,2.43,2.43,0,0,0-1.22.82,2.16,2.16,0,0,0-.36,1.27,2.34,2.34,0,0,0,.31,1.25,2.09,2.09,0,0,0,1.12.79,8.9,8.9,0,0,0,2.21.41q1.41.12,3.64.12t3.75-.1a8.43,8.43,0,0,0,2.28-.41,2.08,2.08,0,0,0,1.13-.84A2.73,2.73,0,0,0,42.64,11a2,2,0,0,0-.36-1.23A2.37,2.37,0,0,0,41.06,9Z" fill="#28cd7e"/><path d="M56.9,4Q52.34,0,42.65,0H0V6.27H14.73V26.73H0V33.2H44.57a23.37,23.37,0,0,0,6.73-.93,13.89,13.89,0,0,0,5.36-3,13.59,13.59,0,0,0,3.52-5.23,21,21,0,0,0,1.27-7.72Q61.46,8.08,56.9,4Zm-6.07,6.29a1.89,1.89,0,0,1-1.41.65,2,2,0,0,1-1.3-.46,1.51,1.51,0,0,1-.55-1.22,1.82,1.82,0,0,1,.12-.7A1.64,1.64,0,0,1,48,8.14a1.78,1.78,0,0,1,.28-.26c.08-.06.12-.11.12-.16s-.13-.24-.38-.24a1.89,1.89,0,0,0-.81.26,3,3,0,0,0-.91.74,7.48,7.48,0,0,1,.51,2.95A5.85,5.85,0,0,1,46.27,14a3.87,3.87,0,0,1-1.83,1.73,11.45,11.45,0,0,1-3.58,1A43.75,43.75,0,0,1,35.1,17q-2.61,0-4.56-.17a15.17,15.17,0,0,1-3.32-.62,2.78,2.78,0,0,0-1.37.53,1.6,1.6,0,0,0-.48,1.06A1.14,1.14,0,0,0,26.63,19H43.32a8.38,8.38,0,0,1,2.52.34,5.3,5.3,0,0,1,1.82,1,4.09,4.09,0,0,1,1.11,1.44,4.23,4.23,0,0,1,.38,1.78,5.13,5.13,0,0,1-.34,1.85,4.32,4.32,0,0,1-1,1.56A5.22,5.22,0,0,1,46.1,28a6,6,0,0,1-2.33.41H26a4.76,4.76,0,0,1-2.88-.82A2.81,2.81,0,0,1,22,25.18a2.94,2.94,0,0,1,2.3-2.91,3.11,3.11,0,0,1-1.54-3,4.55,4.55,0,0,1,.74-2.54,4.59,4.59,0,0,1,1.83-1.34,4.76,4.76,0,0,1-1.85-4.18,5.76,5.76,0,0,1,.65-2.84,4.74,4.74,0,0,1,2.08-1.89,11.75,11.75,0,0,1,3.67-1,41.11,41.11,0,0,1,5.47-.31,35.73,35.73,0,0,1,6.05.41A8.37,8.37,0,0,1,45,6.87a3.61,3.61,0,0,1,1.27-1,4.26,4.26,0,0,1,1.92-.39,3.46,3.46,0,0,1,1.23.22,3.52,3.52,0,0,1,1,.62,3,3,0,0,1,.74.94,2.65,2.65,0,0,1,.28,1.2A2.64,2.64,0,0,1,50.83,10.33Z" fill="#28cd7e"/><path d="M.17,24.68v-2.2c0-1.68.86-2.1,2.11-2.1h2.8c1.26,0,2.08.45,2.08,2.13v.8h5.24v1.36Zm5.73-2.15c0-.61-.3-.79-.82-.79H2.29c-.52,0-.8.17-.8.79v.79H5.91Z" fill="#28cd7e"/><path d="M8.95,16.08c-3.48,0-2.08,2.9-5.71,2.9H2.15C.89,19,0,18.53,0,16.85s.89-2.13,2.15-2.13H3.5v1.36H2.15c-.52,0-.93.16-.93.77s.4.77.93.77h1c3,0,1.57-2.9,5.71-2.9h1.54c1.26,0,2.15.46,2.15,2.13S11.69,19,10.43,19H8.91V17.62h1.52c.52,0,.93-.16.93-.77s-.4-.77-.93-.77Z" fill="#28cd7e"/><path d="M10.43,11.61c.52,0,.93-.17.93-.79S11,10,10.43,10H.17V8.67H10.43c1.26,0,2.15.47,2.15,2.15S11.69,13,10.43,13H.17V11.61Z" fill="#28cd7e"/></g></g></svg>