<svg height="50" viewBox="0 0 334 50" width="334" xmlns="http://www.w3.org/2000/svg"><path d="m20.6393 37.3961h-11.8036v-26.9645h-8.8357v-9.8008h29.4749v9.8008h-8.8356zm40.9574 0h-11.8036v-13.9419h-4.9021v13.9419h-11.8036v-36.7653h11.8036v13.5628h4.9021v-13.5628h11.8036v36.7652zm17.7367-26.9645v3.762h6.7084v9.1984h-6.7084v4.2032h13.3515v9.8009h-25.1551v-36.7653h25.1551v9.8008zm52.9996 4.7605c0 3.0208-.519 5.6485-1.556 7.8887s-2.593 4.042-4.666 5.4054l8.52 21.1829h-14.297l-6.297-17.9669h-1.409v17.9669h-13.6322v-49.6691h14.8912c6.271 0 10.914 1.253 13.928 3.762 3.01 2.5089 4.518 6.3161 4.518 11.4301zm-13.558.8033c0-1.6066-.384-2.8484-1.148-3.7252-.767-.8769-1.866-1.3153-3.297-1.3153h-1.704v10.8107h1.704c1.383 0 2.468-.5233 3.26-1.5699.79-1.0465 1.185-2.4466 1.185-4.2003zm31.78 33.6708h-13.555v-49.6662h13.555zm17.189-49.6662 4.519 26.1498h.147l5.039-26.1498h13.113l-12.224 49.6662h-12.667l-11.56-49.6662zm39.93 11.3933v7.5239h7.705v11.3198h-7.705v8.0359h15.333v11.3933h-28.892v-49.6662h28.892v11.3933zm42.908 38.2729h-13.556v-38.2729h-10.15v-11.3933h33.857v11.3933h-10.151zm27.856-38.2729v7.5239h7.706v11.3198h-7.706v8.0359h15.334v11.3933h-28.892v-49.6662h28.892v11.3933zm53.264 3.7988c0 3.0208-.519 5.6485-1.556 7.8887s-2.593 4.042-4.666 5.4054l8.52 21.1829h-14.297l-6.297-17.9669h-1.409v17.9669h-13.632v-49.6691h14.891c6.271 0 10.914 1.253 13.928 3.762 3.013 2.5089 4.518 6.3161 4.518 11.4301zm-13.556.8033c0-1.6066-.383-2.8484-1.147-3.7252-.767-.8769-1.866-1.3153-3.298-1.3153h-1.704v10.8107h1.704c1.384 0 2.469-.5233 3.261-1.5699.79-1.0465 1.184-2.4466 1.184-4.2003zm-225.6568 26.6787h-90.2226v7.3259h90.2226z"/></svg>