<svg xmlns="http://www.w3.org/2000/svg" viewBox="0 0 408.26 425.88"><title>Asset 1</title><g id="Layer_2" data-name="Layer 2"><g id="Layer_1-2" data-name="Layer 1"><path d="M12.6,78.55C12.6,29.31,42.56,0,82.41,0,101,0,116,8.93,125.59,18.78l-15,16.7C103.14,28,94.15,23.32,82.41,23.32c-25,0-42.22,20.66-42.22,54.43,0,34.4,17.21,55.18,42.89,55.18,12.31,0,22.07-5.66,30.42-14.91l15,16.24c-12,14.17-27.93,22-48.07,22C43.05,156.25,12.6,128.56,12.6,78.55Z" style="fill:#fff"/><path d="M294.8,2.77h96.64V25.31H321.61V63.85h59.15V86.4H321.61v44.54h72.14v22.54H294.8Z" style="fill:#fff"/><path d="M54.64,297.71H7.15V275.17H128.93v22.54H81.45V425.88H54.64Z" style="fill:#fff"/><path d="M290.51,403.34h36.31V297.71H290.51V275.17h99.42v22.54h-36.3V403.34h36.3v22.54H290.51Z" style="fill:#fff"/><path d="M227.78,237.59c31.27-13.76,72.82-18.31,180.48-23.65-107.66-5.34-149.21-9.88-180.48-23.64C214,159,209.47,117.47,204.13,9.81,198.79,117.47,194.25,159,180.48,190.3,149.21,204.06,107.66,208.6,0,213.94c107.66,5.34,149.21,9.89,180.48,23.65,13.77,31.27,18.31,72.82,23.65,180.49C209.47,310.41,214,268.86,227.78,237.59Z" style="fill:#fff"/></g></g></svg>