
<svg version="1.1" id="Layer_1" xmlns="http://www.w3.org/2000/svg" xmlns:xlink="http://www.w3.org/1999/xlink" x="0px" y="0px"
	 width="600px" height="600px" viewBox="0 0 600 600" enable-background="new 0 0 600 600" xml:space="preserve">
<g>
	<path fill="#1333D3" d="M163.168,300.194c0-40.648,25.721-64.24,58.571-64.24c15.542,0,28.292,7.421,36.581,15.594l-15.275,17.166
		c-5.854-5.416-12.451-8.792-21.305-8.792c-17.409,0-30.122,14.794-30.122,39.353c0,25.206,12.713,39.833,31.208,39.833
		c8.845,0,16.142-4.349,22.091-10.831l15.275,16.79c-10.002,11.832-23.725,18.009-40.229,18.009
		C189.484,363.076,163.168,341.542,163.168,300.194z"/>
	<path fill="#1333D3" d="M279.467,238.212h81.272v23.268h-53.523v24.587h45.473v23.268h-45.473v28.216h55.404v23.268h-83.154
		V238.212z"/>
	<path fill="#1333D3" d="M413.776,261.479h-36.754v-23.268H478.28v23.268h-36.754v99.338h-27.75V261.479z"/>
	<path fill="#1333D3" d="M494.262,337.55h28.631v-76.071h-28.631v-23.268h85.011v23.268h-28.631v76.071h28.631v23.268h-85.011
		V337.55z"/>
</g>
<path fill="#1333D3" d="M122.381,238.198H40.196c-11.166,0-20.217,9.051-20.217,20.217v82.185c0,11.165,9.051,20.217,20.217,20.217
	h82.185c11.165,0,20.217-9.051,20.217-20.217v-82.185C142.597,247.249,133.546,238.198,122.381,238.198z M81.288,353.796
	c0-0.894-0.024-1.77-0.053-2.643h0.099C81.305,352.024,81.288,352.903,81.288,353.796z"/>
<path fill="#FFFFFF" d="M81.445,246.153h-0.313c-1.118,44.731-8.467,52.08-53.197,53.197v0.314
	c44.73,1.117,52.08,8.467,53.197,53.197h0.313c1.118-44.731,8.467-52.08,53.198-53.197v-0.314
	C89.912,298.233,82.563,290.883,81.445,246.153z"/>
</svg>
