<?xml version="1.0" encoding="iso-8859-1"?>
<!-- Generator: Adobe Illustrator 24.0.3, SVG Export Plug-In . SVG Version: 6.00 Build 0)  -->
<svg version="1.1" id="Layer_1" xmlns="http://www.w3.org/2000/svg" xmlns:xlink="http://www.w3.org/1999/xlink" x="0px" y="0px"
	 width="400px" height="400px" viewBox="0 0 400 400" enable-background="new 0 0 400 400" xml:space="preserve">
<g>
	<g>
		<path fill="#505555" d="M111.596,200.108c0-26.433,16.726-41.775,38.088-41.775c10.107,0,18.398,4.826,23.788,10.141
			l-9.933,11.163c-3.807-3.522-8.097-5.717-13.855-5.717c-11.321,0-19.588,9.62-19.588,25.591c0,16.391,8.267,25.903,20.294,25.903
			c5.752,0,10.497-2.828,14.366-7.043l9.933,10.918C168.185,236.983,159.261,241,148.529,241
			C128.709,241,111.596,226.997,111.596,200.108z"/>
		<path fill="#505555" d="M187.224,159.802h52.851v15.131h-34.806v15.989h29.571v15.131h-29.571v18.349h36.029v15.131h-54.075
			L187.224,159.802L187.224,159.802z"/>
		<path fill="#505555" d="M274.564,174.932h-23.901v-15.131h65.847v15.131H292.61v64.599h-18.046V174.932z"/>
		<path fill="#505555" d="M326.904,224.401h18.619v-49.468h-18.619v-15.131h55.282v15.131h-18.619v49.468h18.619v15.131h-55.282
			L326.904,224.401L326.904,224.401z"/>
	</g>
	<path fill="#E5450A" d="M85.072,159.793H31.628c-7.261,0-13.147,5.886-13.147,13.147v53.444c0,7.261,5.886,13.147,13.147,13.147
		h53.444c7.261,0,13.147-5.886,13.147-13.147V172.94C98.218,165.678,92.333,159.793,85.072,159.793z M58.349,234.965
		c0-0.581-0.016-1.151-0.034-1.719h0.064C58.361,233.813,58.349,234.385,58.349,234.965z"/>
	<path fill="#FFFFFF" d="M58.452,164.966h-0.204c-0.727,29.088-5.506,33.867-34.594,34.594v0.204
		c29.088,0.726,33.867,5.506,34.594,34.594h0.204c0.727-29.088,5.506-33.867,34.594-34.594v-0.204
		C63.958,198.833,59.179,194.053,58.452,164.966z"/>
</g>
</svg>
