<?xml version="1.0" encoding="iso-8859-1"?>
<!-- Generator: Adobe Illustrator 24.0.3, SVG Export Plug-In . SVG Version: 6.00 Build 0)  -->
<svg version="1.1" id="Layer_1" xmlns="http://www.w3.org/2000/svg" xmlns:xlink="http://www.w3.org/1999/xlink" x="0px" y="0px"
	 width="600px" height="600px" viewBox="0 0 600 600" enable-background="new 0 0 600 600" xml:space="preserve">
<line fill="none" x1="300" y1="327" x2="300" y2="331"/>
<g>
	<path fill="#1333D3" d="M57.269,325.671c0-40.648,25.721-64.24,58.571-64.24c15.542,0,28.292,7.421,36.581,15.594l-15.275,17.166
		c-5.854-5.416-12.451-8.792-21.305-8.792c-17.409,0-30.122,14.794-30.122,39.353c0,25.206,12.713,39.833,31.208,39.833
		c8.845,0,16.142-4.349,22.091-10.831l15.275,16.79c-10.002,11.832-23.725,18.009-40.229,18.009
		C83.585,388.552,57.269,367.019,57.269,325.671z"/>
	<path fill="#1333D3" d="M173.568,263.689h81.272v23.268h-53.523v24.587h45.473v23.268h-45.473v28.216h55.404v23.268h-83.154
		V263.689z"/>
	<path fill="#1333D3" d="M307.877,286.956h-36.754v-23.268h101.258v23.268h-36.754v99.338h-27.75V286.956z"/>
	<path fill="#1333D3" d="M388.363,363.027h28.631v-76.071h-28.631v-23.268h85.011v23.268h-28.631v76.071h28.631v23.268h-85.011
		V363.027z"/>
</g>
<path fill="#1333D3" d="M542.166,246.978l-35.783-35.783l-35.784,35.783l35.783,35.783L542.166,246.978z M490.538,262.821
	c0.261-0.261,0.509-0.524,0.756-0.787l0.029,0.029C491.061,262.309,490.799,262.56,490.538,262.821z"/>
<path fill="#FFFFFF" d="M506.448,224.958h-0.129c-0.461,18.461-3.494,21.494-21.955,21.955v0.129
	c18.461,0.461,21.494,3.494,21.955,21.955h0.129c0.461-18.461,3.494-21.494,21.955-21.955v-0.129
	C509.942,246.452,506.909,243.419,506.448,224.958z"/>
<g>
</g>
<g>
</g>
<g>
</g>
<g>
</g>
<g>
</g>
<g>
</g>
<g>
</g>
<g>
</g>
<g>
</g>
<g>
</g>
<g>
</g>
<g>
</g>
<g>
</g>
<g>
</g>
<g>
</g>
</svg>
