<?xml version="1.0" encoding="iso-8859-1"?>
<!-- Generator: Adobe Illustrator 24.0.3, SVG Export Plug-In . SVG Version: 6.00 Build 0)  -->
<svg version="1.1" id="Layer_1" xmlns="http://www.w3.org/2000/svg" xmlns:xlink="http://www.w3.org/1999/xlink" x="0px" y="0px"
	 width="600px" height="600px" viewBox="0 0 600 600" enable-background="new 0 0 600 600" xml:space="preserve">
<g>
	<path fill="#1333D3" d="M53.792,300.815c0-40.648,25.721-64.24,58.571-64.24c15.542,0,28.292,7.421,36.581,15.594l-15.275,17.166
		c-5.854-5.416-12.451-8.792-21.305-8.792c-17.409,0-30.122,14.794-30.122,39.353c0,25.206,12.713,39.833,31.208,39.833
		c8.845,0,16.142-4.349,22.091-10.831l15.275,16.79c-10.002,11.832-23.725,18.009-40.229,18.009
		C80.107,363.697,53.792,342.163,53.792,300.815z"/>
	<path fill="#1333D3" d="M170.091,238.833h81.272V262.1H197.84v24.587h45.473v23.268H197.84v28.216h55.404v23.268h-83.154V238.833z"
		/>
	<path fill="#1333D3" d="M304.399,262.1h-36.754v-23.268h101.258V262.1h-36.754v99.338h-27.75V262.1z"/>
	<path fill="#1333D3" d="M384.885,338.171h28.631V262.1h-28.631v-23.268h85.011V262.1h-28.631v76.071h28.631v23.268h-85.011V338.171
		z"/>
</g>
<g>
	<path fill="#1333D3" d="M537.865,313.819h-33.918c-4.608,0-8.344,3.736-8.344,8.344v33.918c0,4.608,3.735,8.344,8.344,8.344h33.918
		c4.608,0,8.344-3.736,8.344-8.344v-33.918C546.208,317.555,542.473,313.819,537.865,313.819z M520.905,361.528
		c0-0.369-0.01-0.731-0.022-1.091h0.041C520.913,360.796,520.905,361.159,520.905,361.528z"/>
	<path fill="#FFFFFF" d="M520.97,317.102h-0.129c-0.461,18.461-3.494,21.494-21.955,21.955v0.129
		c18.461,0.461,21.494,3.494,21.955,21.955h0.129c0.461-18.461,3.495-21.494,21.955-21.955v-0.129
		C524.465,338.596,521.432,335.563,520.97,317.102z"/>
</g>
<g>
</g>
<g>
</g>
<g>
</g>
<g>
</g>
<g>
</g>
<g>
</g>
<g>
</g>
<g>
</g>
<g>
</g>
<g>
</g>
<g>
</g>
<g>
</g>
<g>
</g>
<g>
</g>
<g>
</g>
</svg>
